Run_30002
nRows=4
nColumns=164

# SIMM Motion File Header:
name Run_30002
datacolumns 164
datarows 4
otherdata 1
range 2.75000000 2.78000000
endheader
time	pelvis_tilt	pelvis_list	pelvis_rotation	pelvis_tx	pelvis_ty	pelvis_tz	hip_flexion_r	hip_adduction_r	hip_rotation_r	knee_angle_r	ankle_angle_r	hip_flexion_l	hip_adduction_l	hip_rotation_l	knee_angle_l	ankle_angle_l	lumbar_extension	lumbar_bending	lumbar_rotation	arm_flex_r	arm_add_r	arm_rot_r	elbow_flex_r	pro_sup_r	arm_flex_l	arm_add_l	arm_rot_l	elbow_flex_l	pro_sup_l	subtalar_angle_r	mtp_angle_r	subtalar_angle_l	mtp_angle_l	wrist_flex_r	wrist_dev_r	wrist_flex_l	wrist_dev_l	LASI_tx	LASI_ty	LASI_tz	RASI_tx	RASI_ty	RASI_tz	LPSI_tx	LPSI_ty	LPSI_tz	RPSI_tx	RPSI_ty	RPSI_tz	RTH1_tx	RTH1_ty	RTH1_tz	RTH2_tx	RTH2_ty	RTH2_tz	RTH3_tx	RTH3_ty	RTH3_tz	LTH1_tx	LTH1_ty	LTH1_tz	LTH2_tx	LTH2_ty	LTH2_tz	LTH3_tx	LTH3_ty	LTH3_tz	RTB1_tx	RTB1_ty	RTB1_tz	RTB2_tx	RTB2_ty	RTB2_tz	RTB3_tx	RTB3_ty	RTB3_tz	LTB1_tx	LTB1_ty	LTB1_tz	LTB2_tx	LTB2_ty	LTB2_tz	LTB3_tx	LTB3_ty	LTB3_tz	RCAL_tx	RCAL_ty	RCAL_tz	RTOE_tx	RTOE_ty	RTOE_tz	RMT5_tx	RMT5_ty	RMT5_tz	LCAL_tx	LCAL_ty	LCAL_tz	LTOE_tx	LTOE_ty	LTOE_tz	LMT5_tx	LMT5_ty	LMT5_tz	LACR_tx	LACR_ty	LACR_tz	RACR_tx	RACR_ty	RACR_tz	CLAV_tx	CLAV_ty	CLAV_tz	C7_tx	C7_ty	C7_tz	RUA1_tx	RUA1_ty	RUA1_tz	RUA2_tx	RUA2_ty	RUA2_tz	RUA3_tx	RUA3_ty	RUA3_tz	RLEL_tx	RLEL_ty	RLEL_tz	RMEL_tx	RMEL_ty	RMEL_tz	LUA1_tx	LUA1_ty	LUA1_tz	LUA2_tx	LUA2_ty	LUA2_tz	LUA3_tx	LUA3_ty	LUA3_tz	LLEL_tx	LLEL_ty	LLEL_tz	LMEL_tx	LMEL_ty	LMEL_tz	RFAsuperior_tx	RFAsuperior_ty	RFAsuperior_tz	RFAradius_tx	RFAradius_ty	RFAradius_tz	RFAulna_tx	RFAulna_ty	RFAulna_tz	LFAsuperior_tx	LFAsuperior_ty	LFAsuperior_tz	LFAradius_tx	LFAradius_ty	LFAradius_tz	LFAulna_tx	LFAulna_ty	LFAulna_tz
      2.75000000	      1.70399634	      2.21080107	     -4.11307204	      0.82561127	      1.03506584	     -0.31524794	    -23.90288261	     -0.75614534	      0.28802102	    -19.12746786	    -23.15276226	     19.33026611	      4.85621631	      4.18625600	    -10.56171946	      2.27456500	    -13.42314265	     -6.01402109	      9.15360541	    -16.40642869	    -24.47138145	    -10.88082089	    103.11349936	     73.29624564	    -39.71886441	    -13.93314063	    -16.12718697	     92.35124703	     95.57088290	      0.00000000	      0.00000000	      0.00000000	      0.00000000	      0.00000000	      0.00000000	      0.00000000	      0.00000000	      0.83299796	      1.06411376	     -0.44779176	      0.82360074	      1.04619737	     -0.18996155	      0.66610029	      1.08729506	     -0.38261776	      0.64931496	      1.05624804	     -0.27965601	      0.66979064	      0.88356196	     -0.15305090	      0.70901325	      0.75944923	     -0.16368838	      0.59608642	      0.67661804	     -0.19255916	      0.79715666	      0.85969994	     -0.48834866	      0.91319766	      0.76908260	     -0.46706300	      0.89538618	      0.63981127	     -0.45453494	      0.52985947	      0.43006328	     -0.26046810	      0.46569975	      0.40465313	     -0.19906969	      0.41211754	      0.30597706	     -0.26253785	      0.98227890	      0.41636037	     -0.38079146	      0.94963479	      0.32544108	     -0.44466433	      0.99676490	      0.26232216	     -0.37455451	      0.26071209	      0.29818202	     -0.27734707	      0.35167229	      0.09231038	     -0.30134200	      0.30162732	      0.11503328	     -0.21774399	      0.91497697	      0.09858965	     -0.36034821	      1.13872663	      0.14436095	     -0.34191543	      1.09947149	      0.10075170	     -0.43302936	      0.79989051	      1.52301831	     -0.50301637	      0.83042910	      1.54330726	     -0.17734456	      0.87179170	      1.47155010	     -0.31506192	      0.75050024	      1.55100883	     -0.33108527	      0.78807040	      1.47625425	     -0.08574998	      0.71584304	      1.40884602	     -0.09070910	      0.75353211	      1.36063978	     -0.04228389	      0.72468368	      1.26117989	      0.00169166	      0.69431520	      1.24073823	     -0.07260203	      0.71449532	      1.47630124	     -0.56644590	      0.65036377	      1.42359203	     -0.51076888	      0.60521927	      1.37613836	     -0.56335987	      0.55805298	      1.30539882	     -0.58773033	      0.56210107	      1.29739479	     -0.50976879	      0.82730522	      1.23159029	     -0.01017771	      0.96462329	      1.19261899	     -0.07471155	      0.94129882	      1.12852429	     -0.05025957	      0.62955615	      1.22224524	     -0.60959515	      0.74300071	      1.10225097	     -0.57388608	      0.68649070	      1.06660626	     -0.59886735
      2.76000000	      1.50424771	      1.67496830	     -4.26356500	      0.82549920	      1.03423768	     -0.31529115	    -22.50675258	     -0.51655591	      0.43483487	    -23.52514813	    -24.78761847	     18.58540806	      4.21014412	      3.87310402	     -7.15000999	      2.59494403	    -13.27750421	     -5.51830021	      9.14864189	    -16.40349501	    -24.60543852	    -10.74311370	    103.04007350	     73.47105153	    -39.84496104	    -13.71471525	    -16.28812588	     92.75554454	     95.44097396	      0.00000000	      0.00000000	      0.00000000	      0.00000000	      0.00000000	      0.00000000	      0.00000000	      0.00000000	      0.83407416	      1.06289892	     -0.44696325	      0.82308661	      1.04738315	     -0.18914144	      0.66617647	      1.08620995	     -0.38351660	      0.64882646	      1.05783493	     -0.27871606	      0.67162875	      0.88359446	     -0.15463781	      0.71239265	      0.75814770	     -0.16436135	      0.60189779	      0.67419440	     -0.19193586	      0.79349718	      0.85499764	     -0.48931650	      0.90856741	      0.76347697	     -0.46764007	      0.88801200	      0.63400303	     -0.45740556	      0.53090223	      0.42928561	     -0.25888065	      0.46568367	      0.40713982	     -0.19727717	      0.40698067	      0.31136880	     -0.25986797	      0.98246468	      0.41557366	     -0.38039363	      0.95345276	      0.32341864	     -0.44384489	      1.00249511	      0.26272868	     -0.37316857	      0.25805935	      0.31328465	     -0.27379373	      0.33119988	      0.09998054	     -0.29737871	      0.28224651	      0.12675374	     -0.21590809	      0.92750826	      0.09489021	     -0.35834871	      1.14860869	      0.15177454	     -0.33969196	      1.11208212	      0.10618870	     -0.43027410	      0.80129589	      1.52185330	     -0.50395296	      0.83039218	      1.54274574	     -0.17820269	      0.87189959	      1.47072158	     -0.31556111	      0.75125233	      1.55069730	     -0.33210424	      0.78716165	      1.47622556	     -0.08684744	      0.71515187	      1.40873089	     -0.09230544	      0.75236089	      1.36100451	     -0.04309086	      0.72403711	      1.26128822	      0.00103960	      0.69344351	      1.24082742	     -0.07307811	      0.71576485	      1.47550237	     -0.56739149	      0.65152980	      1.42283665	     -0.51175419	      0.60638574	      1.37564010	     -0.56438451	      0.55872968	      1.30504800	     -0.58869154	      0.56275141	      1.29709097	     -0.51079035	      0.82641338	      1.23135858	     -0.01049796	      0.96357222	      1.19188366	     -0.07487249	      0.94016555	      1.12788496	     -0.05024037	      0.63081635	      1.22217948	     -0.61047698	      0.74489680	      1.10277435	     -0.57427796	      0.68839597	      1.06677015	     -0.59910759
      2.77000000	      1.38033063	      1.32439042	     -4.29648279	      0.82476437	      1.03249459	     -0.31546721	    -20.84308884	     -0.31977651	      0.89167669	    -28.54871123	    -25.77853437	     18.15391993	      3.89873879	      3.59216651	     -5.29640317	      3.12507528	    -13.30005993	     -5.22579901	      8.89367863	    -16.33471837	    -24.70478525	    -10.51896967	    102.87159626	     73.52675711	    -39.71179914	    -13.71437716	    -16.21776415	     93.18041315	     95.23983242	      0.00000000	      0.00000000	      0.00000000	      0.00000000	      0.00000000	      0.00000000	      0.00000000	      0.00000000	      0.83451048	      1.06080748	     -0.44633744	      0.82244646	      1.04765363	     -0.18819929	      0.66510677	      1.08337423	     -0.38401017	      0.64821206	      1.05850634	     -0.27765403	      0.67418651	      0.88134903	     -0.15527514	      0.71735174	      0.75490464	     -0.16584640	      0.60939116	      0.66953195	     -0.19135315	      0.79013320	      0.84952872	     -0.49061523	      0.90425890	      0.75715835	     -0.46844674	      0.88262582	      0.62902994	     -0.45899271	      0.53397769	      0.42667693	     -0.25761108	      0.46777699	      0.40847925	     -0.19573119	      0.40352607	      0.31637185	     -0.25735825	      0.98179487	      0.41437905	     -0.37924068	      0.95558744	      0.32144976	     -0.44325748	      1.00422662	      0.26194923	     -0.37104922	      0.25633264	      0.32797181	     -0.27054863	      0.31252016	      0.10913865	     -0.29334638	      0.26491188	      0.13994148	     -0.21347448	      0.93243469	      0.09227508	     -0.35608107	      1.15201607	      0.15473964	     -0.33801866	      1.11635264	      0.11033054	     -0.42737522	      0.80292008	      1.51939458	     -0.50519529	      0.83017669	      1.54103628	     -0.17901168	      0.87179241	      1.46878958	     -0.31604971	      0.75172972	      1.54941038	     -0.33340512	      0.78593007	      1.47493947	     -0.08784648	      0.71404238	      1.40736902	     -0.09378698	      0.75081194	      1.36005409	     -0.04387794	      0.72238766	      1.26042072	      0.00054589	      0.69155434	      1.23992256	     -0.07339756	      0.71747178	      1.47283951	     -0.56887831	      0.65256636	      1.42068839	     -0.51353533	      0.60820711	      1.37335499	     -0.56639905	      0.56019287	      1.30274364	     -0.59063756	      0.56428485	      1.29487362	     -0.51314155	      0.82481687	      1.22980180	     -0.01069716	      0.96177081	      1.18955886	     -0.07464090	      0.93812718	      1.12569775	     -0.04994604	      0.63336608	      1.22031844	     -0.61196496	      0.74817611	      1.10186176	     -0.57436204	      0.69187069	      1.06535170	     -0.59925712
      2.78000000	      1.39928226	      1.16562055	     -4.17655604	      0.82368026	      1.02995883	     -0.31560864	    -19.11863573	     -0.12012247	      1.54945762	    -33.93957007	    -26.03337418	     17.97196241	      3.90627080	      3.54247352	     -5.02116686	      3.85854854	    -13.53374386	     -5.16169463	      8.38861446	    -16.23780462	    -24.68544947	    -10.26696646	    102.60215568	     73.53884202	    -39.33465012	    -13.98960504	    -15.93911860	     93.63159315	     94.93995083	      0.00000000	      0.00000000	      0.00000000	      0.00000000	      0.00000000	      0.00000000	      0.00000000	      0.00000000	      0.83425473	      1.05802619	     -0.44594944	      0.82196234	      1.04672980	     -0.18716609	      0.66298991	      1.07901042	     -0.38380100	      0.64775366	      1.05798346	     -0.27650110	      0.67738608	      0.87691876	     -0.15478562	      0.72365137	      0.75027502	     -0.16775042	      0.61805604	      0.66300845	     -0.19099111	      0.78788439	      0.84417452	     -0.49194468	      0.90107629	      0.75093441	     -0.46922347	      0.88056170	      0.62529953	     -0.45852015	      0.53883889	      0.42267587	     -0.25655429	      0.47201342	      0.40896821	     -0.19435483	      0.40165855	      0.32125076	     -0.25506098	      0.98009949	      0.41223437	     -0.37748527	      0.95526066	      0.31880124	     -0.44276598	      1.00225842	      0.25935852	     -0.36862524	      0.25561395	      0.34263610	     -0.26761514	      0.29648473	      0.12002115	     -0.28945055	      0.25098494	      0.15461635	     -0.21030632	      0.93034249	      0.08980094	     -0.35392241	      1.14977156	      0.15331652	     -0.33632848	      1.11350061	      0.11123735	     -0.42502839	      0.80467320	      1.51570353	     -0.50655585	      0.82981430	      1.53811833	     -0.17987539	      0.87143527	      1.46578442	     -0.31647152	      0.75198086	      1.54713028	     -0.33493523	      0.78458142	      1.47243497	     -0.08868613	      0.71254775	      1.40488696	     -0.09506166	      0.74892445	      1.35781816	     -0.04461710	      0.71991364	      1.25850274	     -0.00008155	      0.68882173	      1.23800239	     -0.07385631	      0.71954301	      1.46854319	     -0.57088345	      0.65357807	      1.41710328	     -0.51605197	      0.61050313	      1.36927250	     -0.56929382	      0.56252802	      1.29846803	     -0.59360319	      0.56648302	      1.29070819	     -0.51663116	      0.82248103	      1.22697882	     -0.01075388	      0.95922718	      1.18569614	     -0.07400917	      0.93517259	      1.12203556	     -0.04932737	      0.63718228	      1.21661537	     -0.61405117	      0.75276158	      1.09956039	     -0.57424469	      0.69690672	      1.06238230	     -0.59939917
